# xmcd
#
# Track frame offsets:
#	182
#	29040
#	51275
#	82727
#	89127
#	108352
#	138267
#	186710
#
# Disc length: 2609 seconds
#
# Revision: 6
# Processed by: cddbd v1.5.2PL0 Copyright (c) Steve Scherf et al.
# Submitted via: EZCDAudioConverter 2.1.7.1
#
DISCID=700a2f08
DTITLE=William S. Burroughs - Call Me Burroughs
DYEAR=1965
DGENRE=
TTITLE0=Bradley The Buyer
TTITLE1=Meeting Of International Conference Of Technological Psychiatry
TTITLE2=The Fish Poison Con
TTITLE3=Thing Police Keep All Board Room Reports
TTITLE4=Mr. Bradley Mr. Martin Hear Us Through The Hole In Thin Air
TTITLE5=Where You Belong [Rewrite]
TTITLE6=Inflexible Authority
TTITLE7=Uranian Willy [Rewrite]
EXTD=
EXTT0=
EXTT1=
EXTT2=
EXTT3=
EXTT4=
EXTT5=
EXTT6=
EXTT7=
PLAYORDER=
